<svg width="31" height="31" fill="none" xmlns="http://www.w3.org/2000/svg"><path d="M30.366 15.02c0 8.074-6.707 14.634-15 14.634s-15-6.56-15-14.634c0-8.074 6.707-14.634 15-14.634s15 6.56 15 14.634z" stroke="#C4C4C4" stroke-width=".732"/><g clip-path="url(#clip0)"><path d="M13.537 12.215h-1.83v2.439h1.83v7.317h3.048v-7.317h2.195l.244-2.439h-2.439v-1.037c0-.548.122-.792.671-.792h1.768v-3.05h-2.317c-2.195 0-3.17.977-3.17 2.806v2.073z" fill="#C4C4C4"/></g><defs><clipPath id="clip0"><path fill="#fff" transform="translate(11.707 7.337)" d="M0 0h7.317v14.634H0z"/></clipPath></defs></svg>