<svg width="215" height="32" fill="none" xmlns="http://www.w3.org/2000/svg"><g clip-path="url(#clip0)"><path d="M146.414.517h-1.279l-12.599 17.075L119.982.517h-1.278v4.068l13.238 17.566h1.279l13.193-17.566V.517zm-27.71 7.777V30.51h3.56V13.032l-3.56-4.738zm27.71 0l-3.561 4.738V30.51h3.561V8.294zM168.375.517c-3.79 0-7.168 1.252-9.633 3.308v4.112c2.1-2.235 5.524-4.202 9.678-4.202 6.756 0 11.961 5.185 11.961 12.158v9.61c2.237-2.324 3.652-5.677 3.652-9.61 0-8.85-6.985-15.376-15.658-15.376zM156.46 6.015c-2.237 2.324-3.698 5.676-3.698 9.61 0 8.85 6.985 15.376 15.658 15.376 3.789 0 7.167-1.252 9.678-3.308v-4.112c-2.145 2.235-5.615 4.202-9.723 4.202-6.757 0-11.915-5.23-11.915-12.158v-9.61zm37.491-5.006h-3.561v29.5h3.561V1.01zm20.451 0h-3.561v12.157h-14.653v3.13h14.653v14.213h3.561V1.01z" fill="#F5CB5C"/><path d="M24.326 30.51h3.789L15.059.516h-1.324l-1.278 2.816 11.869 27.176zm-23.647 0h3.743l2.557-5.99h12.325l-1.37-3.13H8.349l4.794-10.905-1.872-4.336L.679 30.509zm50.95-29.501h-17.94v3.129h17.94v-3.13zm-14.38 5.319h-3.56v24.181h3.56V6.328zm30.212-5.32h-10.59V30.51h3.56V4.05h6.985c3.971 0 6.026 2.413 6.026 5.542 0 3.173-2.055 5.498-6.026 5.498h-4.748v3.039h4.793c5.935 0 9.633-3.576 9.633-8.582 0-4.961-3.698-8.537-9.633-8.537zM96.69.519c-3.789 0-7.167 1.25-9.632 3.307v4.112c2.1-2.235 5.523-4.202 9.678-4.202 6.756 0 11.96 5.185 11.96 12.158v9.61c2.237-2.324 3.652-5.677 3.652-9.61 0-8.85-6.984-15.376-15.658-15.376zM84.774 6.014c-2.237 2.324-3.698 5.676-3.698 9.61 0 8.85 6.985 15.376 15.659 15.376 3.789 0 7.167-1.252 9.678-3.308V23.58c-2.146 2.235-5.615 4.202-9.724 4.202-6.756 0-11.915-5.23-11.915-12.158v-9.61z" fill="#000"/></g><defs><clipPath id="clip0"><path fill="#fff" transform="translate(0 .23)" d="M0 0h215v31H0z"/></clipPath></defs></svg>