<svg width="30" height="31" fill="none" xmlns="http://www.w3.org/2000/svg"><circle cx="15" cy="15.02" r="14.634" stroke="#C4C4C4" stroke-width=".732"/><g clip-path="url(#clip0)"><path d="M15.366 19.776c.366 0 .549-.251.549-.565 0-1.191.426-1.818 1.28-1.003.915.94 1.098 1.568 2.195 1.568h1.951c.488 0 .671-.188.671-.44 0-.564-.854-1.504-1.585-2.194-1.037-1.004-1.098-1.004-.183-2.195 1.036-1.443 2.439-3.324 1.158-3.324h-2.439c-.487 0-.487.25-.67.69-.61 1.442-1.769 3.386-2.195 3.073-.488-.314-.244-1.506-.244-3.324 0-.502 0-.816-.671-.941-.366-.063-.732-.126-1.098-.126-1.341 0-2.317.628-1.768.69.976.188.854 2.32.67 3.262-.365 1.63-1.829-1.255-2.438-2.697-.183-.377-.244-.627-.793-.627H7.805c-.305 0-.488.125-.488.313 0 .376 1.83 4.202 3.537 6.146 1.646 1.882 3.353 1.694 4.512 1.694z" fill="#C4C4C4"/></g><defs><clipPath id="clip0"><path fill="#fff" transform="translate(7.317 10.995)" d="M0 0h14.634v8.78H0z"/></clipPath></defs></svg>