<svg width="31" height="31" fill="none" xmlns="http://www.w3.org/2000/svg"><path d="M30.573 15.02c0 8.074-6.707 14.634-15 14.634s-15-6.56-15-14.634c0-8.074 6.707-14.634 15-14.634s15 6.56 15 14.634z" stroke="#C4C4C4" stroke-width=".732"/><g clip-path="url(#clip0)"><path fill-rule="evenodd" clip-rule="evenodd" d="M19.472 10.671c-1.598-.12-5.156-.12-6.75 0-1.728.132-1.932 1.293-1.944 4.35.012 3.053.214 4.219 1.943 4.35 1.596.122 5.153.122 6.751 0 1.727-.13 1.93-1.292 1.944-4.35-.013-3.052-.215-4.218-1.944-4.35zm-4.705 6.324v-3.947l3.546 1.97-3.546 1.977z" fill="#C4C4C4"/></g><defs><clipPath id="clip0"><path fill="#fff" transform="translate(10.451 10.264)" d="M0 0h10.976v9.512H0z"/></clipPath></defs></svg>