<svg width="31" height="31" viewBox="0 0 31 31" fill="none" xmlns="http://www.w3.org/2000/svg">
<path d="M30.3659 15.0198C30.3659 23.0937 23.6585 29.6539 15.3659 29.6539C7.07322 29.6539 0.365854 23.0937 0.365854 15.0198C0.365854 6.94582 7.07322 0.385629 15.3659 0.385629C23.6585 0.385629 30.3659 6.94582 30.3659 15.0198Z" stroke="#C4C4C4" stroke-width="0.731707"/>
<g clip-path="url(#clip0)">
<path d="M13.5365 12.215H11.7073V14.654H13.5365V21.9711H16.5853V14.654H18.7804L19.0243 12.215H16.5853V11.1784C16.5853 10.6296 16.7073 10.3857 17.2561 10.3857H19.0243V7.33691H16.7073C14.5122 7.33691 13.5365 8.31252 13.5365 10.1418V12.215Z" fill="#C4C4C4"/>
</g>
<defs>
<clipPath id="clip0">
<rect width="7.31707" height="14.6341" fill="white" transform="translate(11.7073 7.33691)"/>
</clipPath>
</defs>
</svg>
