<svg width="32" height="31" viewBox="0 0 32 31" fill="none" xmlns="http://www.w3.org/2000/svg">
<path d="M31.2804 15.0198C31.2804 23.0937 24.573 29.6539 16.2804 29.6539C7.98777 29.6539 1.2804 23.0937 1.2804 15.0198C1.2804 6.94582 7.98777 0.385629 16.2804 0.385629C24.573 0.385629 31.2804 6.94582 31.2804 15.0198Z" stroke="#C4C4C4" stroke-width="0.731707"/>
<mask id="mask0" mask-type="alpha" maskUnits="userSpaceOnUse" x="11" y="9" width="12" height="12">
<path fill-rule="evenodd" clip-rule="evenodd" d="M22.1008 17.2827C22.0109 19.2773 20.9003 20.383 18.9094 20.4747C18.3241 20.5012 18.1368 20.5076 16.6465 20.5076C15.1562 20.5076 14.9694 20.5012 14.3836 20.4747C12.389 20.383 11.2827 19.2757 11.1916 17.2827C11.165 16.6975 11.1587 16.5103 11.1587 15.0198C11.1587 13.5292 11.165 13.3426 11.1922 12.7569C11.2837 10.7623 12.3911 9.65655 14.3841 9.56485C14.9694 9.53834 15.1562 9.53198 16.6465 9.53198C18.1368 9.53198 18.3241 9.53834 18.9099 9.56538C20.9045 9.65708 22.0119 10.7665 22.1013 12.7575C22.128 13.3426 22.1343 13.5292 22.1343 15.0198C22.1343 16.5103 22.128 16.6975 22.1008 17.2827ZM16.6465 12.2019C15.0903 12.2019 13.8286 13.4635 13.8286 15.0198C13.8286 16.5761 15.0903 17.8382 16.6465 17.8382C18.2027 17.8382 19.4644 16.5766 19.4644 15.0198C19.4644 13.4635 18.2027 12.2019 16.6465 12.2019ZM19.5758 11.4317C19.2123 11.4317 18.9167 11.727 18.9167 12.0906C18.9167 12.4543 19.2123 12.749 19.5758 12.749C19.9399 12.749 20.2344 12.4543 20.2344 12.0906C20.2344 11.727 19.9399 11.4317 19.5758 11.4317ZM16.6465 16.8491C15.6364 16.8491 14.8172 16.0306 14.8172 15.0198C14.8172 14.0095 15.6364 13.1905 16.6465 13.1905C17.6566 13.1905 18.4758 14.0095 18.4758 15.0198C18.4758 16.0306 17.6566 16.8491 16.6465 16.8491Z" fill="black"/>
</mask>
<g mask="url(#mask0)">
<rect x="9.78528" y="7.44507" width="13.7313" height="13.9143" fill="#C4C4C4"/>
</g>
</svg>
