<svg width="215" height="32" viewBox="0 0 215 32" fill="none" xmlns="http://www.w3.org/2000/svg">
<g clip-path="url(#clip0)">
<path d="M146.414 0.51709H145.135L132.536 17.5916L119.982 0.51709H118.704V4.58458L131.942 22.1508H133.221L146.414 4.58458V0.51709ZM118.704 8.29449V30.5092H122.264V13.0324L118.704 8.29449ZM146.414 8.29449L142.853 13.0324V30.5092H146.414V8.29449ZM168.375 0.51709C164.585 0.51709 161.207 1.76862 158.742 3.82472V7.9369C160.842 5.70202 164.266 3.73532 168.42 3.73532C175.176 3.73532 180.381 8.92025 180.381 15.8931V25.5031C182.618 23.1788 184.033 19.8265 184.033 15.8931C184.033 7.04295 177.048 0.51709 168.375 0.51709ZM156.46 6.0149C154.223 8.33918 152.762 11.6915 152.762 15.6249C152.762 24.475 159.747 31.0009 168.42 31.0009C172.209 31.0009 175.587 29.7494 178.098 27.6933V23.5811C175.953 25.816 172.483 27.7827 168.375 27.7827C161.618 27.7827 156.46 22.553 156.46 15.6249V6.0149ZM193.951 1.00876H190.39V30.5092H193.951V1.00876ZM214.402 1.00876H210.841V13.1665H196.188V16.2954H210.841V30.5092H214.402V1.00876Z" fill="#F5CB5C"/>
<path d="M24.326 30.5092H28.115L15.0589 0.51709H13.7351L12.4568 3.33304L24.326 30.5092ZM0.678955 30.5092H4.42231L6.97875 24.5197H19.3044L17.9349 21.3909H8.34827L13.1416 10.4847L11.2699 6.149L0.678955 30.5092ZM51.629 1.00876H33.6883V4.1376H51.629V1.00876ZM37.2491 6.32779H33.6883V30.5092H37.2491V6.32779ZM67.4613 1.00876H56.8703V30.5092H60.4311V4.04821H67.4156C71.3872 4.04821 73.4417 6.46188 73.4417 9.59072C73.4417 12.7643 71.3872 15.0885 67.4156 15.0885H62.668V18.128H67.4613C73.3961 18.128 77.0938 14.5522 77.0938 9.54602C77.0938 4.58458 73.3961 1.00876 67.4613 1.00876ZM96.689 0.51709C92.9 0.51709 89.5218 1.76862 87.0567 3.82472V7.9369C89.1566 5.70202 92.5804 3.73532 96.7346 3.73532C103.491 3.73532 108.695 8.92025 108.695 15.8931V25.5031C110.932 23.1788 112.347 19.8265 112.347 15.8931C112.347 7.04295 105.363 0.51709 96.689 0.51709ZM84.7742 6.0149C82.5373 8.33918 81.0764 11.6915 81.0764 15.6249C81.0764 24.475 88.061 31.0009 96.7346 31.0009C100.524 31.0009 103.902 29.7494 106.413 27.6933V23.5811C104.267 25.816 100.798 27.7827 96.689 27.7827C89.9327 27.7827 84.7742 22.553 84.7742 15.6249V6.0149Z" fill="black"/>
</g>
<defs>
<clipPath id="clip0">
<rect width="215" height="31" fill="white" transform="translate(0 0.229492)"/>
</clipPath>
</defs>
</svg>
