<svg width="30" height="31" viewBox="0 0 30 31" fill="none" xmlns="http://www.w3.org/2000/svg">
<circle cx="15" cy="15.0198" r="14.6341" stroke="#C4C4C4" stroke-width="0.731707"/>
<g clip-path="url(#clip0)">
<path d="M15.3658 19.7758C15.7317 19.7758 15.9146 19.525 15.9146 19.2114C15.9146 18.0198 16.3414 17.3926 17.1951 18.2079C18.1097 19.1487 18.2926 19.7758 19.3902 19.7758H21.3414C21.8292 19.7758 22.0121 19.5877 22.0121 19.3368C22.0121 18.7724 21.1585 17.8316 20.4268 17.1417C19.3902 16.1382 19.3292 16.1382 20.2438 14.9466C21.2804 13.5041 22.6829 11.6225 21.4024 11.6225H18.9634C18.4756 11.6225 18.4756 11.8734 18.2926 12.3124C17.6829 13.7549 16.5243 15.6992 16.0975 15.3856C15.6097 15.072 15.8536 13.8804 15.8536 12.0616C15.8536 11.5598 15.8536 11.2462 15.1829 11.1208C14.817 11.0581 14.4512 10.9954 14.0853 10.9954C12.7438 10.9954 11.7682 11.6225 12.317 11.6853C13.2926 11.8734 13.1707 14.0058 12.9877 14.9466C12.6219 16.5772 11.1585 13.6922 10.5487 12.2497C10.3658 11.8734 10.3048 11.6225 9.75604 11.6225H7.80482C7.49994 11.6225 7.31702 11.748 7.31702 11.9361C7.31702 12.3124 9.14628 16.1382 10.8536 18.0825C12.4999 19.964 14.2073 19.7758 15.3658 19.7758Z" fill="#C4C4C4"/>
</g>
<defs>
<clipPath id="clip0">
<rect width="14.6341" height="8.78049" fill="white" transform="translate(7.31702 10.9954)"/>
</clipPath>
</defs>
</svg>
