<svg width="31" height="31" viewBox="0 0 31 31" fill="none" xmlns="http://www.w3.org/2000/svg">
<path d="M30.5731 15.0198C30.5731 23.0937 23.8658 29.6539 15.5731 29.6539C7.2805 29.6539 0.573129 23.0937 0.573129 15.0198C0.573129 6.94582 7.2805 0.385629 15.5731 0.385629C23.8658 0.385629 30.5731 6.94582 30.5731 15.0198Z" stroke="#C4C4C4" stroke-width="0.731707"/>
<g clip-path="url(#clip0)">
<path fill-rule="evenodd" clip-rule="evenodd" d="M19.4721 10.6711C17.8744 10.5501 14.3159 10.5506 12.7211 10.6711C10.9936 10.8027 10.7904 11.9643 10.7775 15.0214C10.7904 18.0737 10.9917 19.24 12.7211 19.3716C14.3169 19.4926 17.8744 19.4932 19.4721 19.3716C21.1995 19.2406 21.4028 18.079 21.4157 15.0214C21.4028 11.9695 21.2014 10.8032 19.4721 10.6711ZM14.7669 16.9952V13.0476L18.3129 15.0182L14.7669 16.9952Z" fill="#C4C4C4"/>
</g>
<defs>
<clipPath id="clip0">
<rect width="10.9756" height="9.5122" fill="white" transform="translate(10.4512 10.2637)"/>
</clipPath>
</defs>
</svg>
